<?xml version="1.0" standalone="no"?>
<!DOCTYPE svg PUBLIC "-//W3C//DTD SVG 20010904//EN"
 "http://www.w3.org/TR/2001/REC-SVG-20010904/DTD/svg10.dtd">
<svg version="1.0" xmlns="http://www.w3.org/2000/svg"
 width="360.000000pt" height="360.000000pt" viewBox="0 0 360.000000 360.000000"
 preserveAspectRatio="xMidYMid meet">
<metadata>
Created by potrace 1.14, written by Peter Selinger 2001-2017
</metadata>
<g transform="translate(0.000000,360.000000) scale(0.100000,-0.100000)"
fill="#000000" stroke="none">
<path d="M2445 2514 c-90 -37 -114 -68 -48 -62 48 4 50 19 -39 -275 -100 -327
-101 -333 -95 -351 10 -24 46 -19 102 14 81 48 112 77 97 92 -10 10 -16 10
-30 0 -30 -22 -62 -35 -68 -29 -7 6 111 404 161 544 18 50 30 94 27 97 -9 9
-22 6 -107 -30z"/>
<path d="M2033 2418 c-43 -56 -132 -170 -198 -253 -66 -83 -144 -183 -173
-222 -47 -64 -64 -77 -124 -97 -10 -3 -18 -12 -18 -19 0 -12 23 -14 118 -13
96 1 117 4 117 16 0 8 -9 16 -20 18 -11 2 -24 8 -29 13 -12 11 92 166 115 172
14 4 171 2 190 -2 6 -1 -7 -112 -17 -143 -3 -11 -25 -23 -52 -31 -26 -8 -48
-21 -50 -29 -3 -13 18 -15 150 -14 124 1 153 4 153 15 0 8 -20 20 -47 28 -39
11 -48 18 -48 36 0 40 30 420 40 507 13 117 13 120 -10 120 -13 0 -45 -33 -97
-102z m2 -202 c-8 -71 -16 -130 -18 -133 -3 -2 -41 -3 -85 -1 l-80 3 96 132
c53 73 97 131 99 130 1 -2 -4 -61 -12 -131z"/>
<path d="M2683 2341 c-23 -27 -58 -56 -77 -65 -56 -26 -58 -60 -3 -49 27 5 30
4 23 -13 -27 -69 -107 -359 -104 -377 2 -17 11 -23 35 -25 42 -4 86 17 148 72
37 33 47 47 39 56 -8 8 -24 4 -60 -19 -31 -20 -51 -28 -58 -21 -9 9 10 96 58
250 l23 75 52 0 c40 0 56 5 66 19 20 27 11 34 -37 30 -63 -6 -70 -1 -54 38 8
18 17 43 20 56 13 39 -26 25 -71 -27z"/>
<path d="M2990 2258 c-57 -29 -122 -95 -151 -155 -34 -69 -38 -176 -10 -231
26 -51 46 -62 108 -62 89 1 186 66 237 161 41 74 48 178 17 242 -12 24 -33 49
-47 55 -39 19 -105 14 -154 -10z m111 -49 c53 -60 18 -251 -59 -323 -34 -32
-88 -40 -115 -17 -27 22 -39 97 -26 161 30 154 138 251 200 179z"/>
<path d="M222 1938 c3 -7 15 -15 27 -16 21 -3 23 -8 17 -40 -8 -52 -85 -304
-97 -318 -5 -6 -23 -14 -39 -18 -17 -3 -30 -10 -30 -16 0 -13 206 -14 214 -1
7 10 -16 21 -44 21 -29 0 -30 11 -8 92 l21 76 73 4 c63 3 77 7 111 34 50 41
72 99 53 144 -7 17 -24 36 -37 41 -39 15 -266 12 -261 -3z m224 -39 c30 -25
10 -106 -32 -134 -31 -20 -100 -30 -109 -16 -8 14 33 153 49 164 14 10 74 1
92 -14z"/>
<path d="M1181 1849 c-13 -17 -35 -36 -48 -42 -28 -12 -30 -27 -4 -27 17 0 16
-8 -15 -112 -43 -142 -43 -158 -6 -158 35 0 129 69 110 81 -7 4 -24 -1 -41
-13 -15 -11 -31 -18 -33 -15 -3 3 7 52 23 109 l28 103 35 3 c50 5 63 22 16 22
-35 0 -38 2 -32 24 3 13 9 31 12 40 10 27 -19 17 -45 -15z"/>
<path d="M2462 1813 c-6 -26 -14 -65 -17 -85 -5 -31 -11 -39 -33 -44 -46 -10
-50 -12 -68 -38 -22 -35 -24 -83 -3 -133 17 -40 17 -42 -2 -59 -42 -38 -79
-110 -79 -155 0 -65 49 -138 92 -139 16 0 17 -7 11 -61 -6 -60 -6 -61 18 -57
20 3 25 11 32 55 8 51 10 53 50 64 23 6 52 20 64 31 l22 20 33 -22 c18 -13 43
-32 54 -42 21 -19 43 -10 29 11 -3 5 2 16 10 24 20 20 19 27 -2 27 -10 1 -33
13 -51 29 -29 25 -32 31 -22 55 5 15 9 49 8 75 l-2 48 -42 -1 c-40 0 -42 -1
-33 -24 5 -13 9 -35 9 -49 0 -21 -2 -23 -15 -13 -21 17 -65 96 -65 115 0 9 18
37 40 62 54 62 52 105 -7 160 -17 16 -23 33 -23 63 0 27 4 39 13 38 16 -4 17
84 1 89 -7 2 -16 -16 -22 -44z m-36 -209 c-3 -9 -6 -29 -6 -45 0 -36 -15 -30
-23 8 -6 34 1 53 20 53 10 0 13 -6 9 -16z m-56 2 c0 -3 -4 -8 -10 -11 -5 -3
-10 -1 -10 4 0 6 5 11 10 11 6 0 10 -2 10 -4z m150 -16 c0 -5 -5 -10 -11 -10
-5 0 -7 5 -4 10 3 6 8 10 11 10 2 0 4 -4 4 -10z m-7 -37 c-7 -2 -19 -2 -25 0
-7 3 -2 5 12 5 14 0 19 -2 13 -5z m-16 -29 c-3 -3 -12 -4 -19 -1 -8 3 -5 6 6
6 11 1 17 -2 13 -5z m-94 -59 c-3 -9 -8 -14 -10 -11 -3 3 -2 9 2 15 9 16 15
13 8 -4z m-33 -51 c0 -2 -9 -4 -21 -4 -11 0 -18 4 -14 10 5 8 35 3 35 -6z m25
-41 c-2 -16 -7 -54 -10 -85 -4 -32 -9 -58 -12 -58 -18 0 -43 37 -43 64 0 31
42 106 59 106 5 0 8 -12 6 -27z m-58 11 c-3 -3 -12 -4 -19 -1 -8 3 -5 6 6 6
11 1 17 -2 13 -5z m243 2 c0 -3 -4 -8 -10 -11 -5 -3 -10 -1 -10 4 0 6 5 11 10
11 6 0 10 -2 10 -4z m-265 -36 c-3 -5 -12 -10 -18 -10 -7 0 -6 4 3 10 19 12
23 12 15 0z m275 0 c0 -5 -5 -10 -11 -10 -5 0 -7 5 -4 10 3 6 8 10 11 10 2 0
4 -4 4 -10z m-101 -78 c14 -12 14 -15 -8 -33 -46 -38 -57 -24 -45 54 7 37 7
37 22 15 8 -13 22 -29 31 -36z m-189 33 c-7 -9 -15 -13 -17 -11 -7 7 7 26 19
26 6 0 6 -6 -2 -15z m290 1 c0 -2 -9 -6 -20 -9 -11 -3 -20 -1 -20 4 0 5 9 9
20 9 11 0 20 -2 20 -4z m-286 -41 c-4 -8 -11 -15 -16 -15 -6 0 -5 6 2 15 7 8
14 15 16 15 2 0 1 -7 -2 -15z m266 1 c0 -9 -30 -14 -35 -6 -4 6 3 10 14 10 12
0 21 -2 21 -4z m-253 -48 c-3 -8 -6 -5 -6 6 -1 11 2 17 5 13 3 -3 4 -12 1 -19z
m220 6 c-3 -3 -12 -4 -19 -1 -8 3 -5 6 6 6 11 1 17 -2 13 -5z m70 -16 c-3 -8
-6 -5 -6 6 -1 11 2 17 5 13 3 -3 4 -12 1 -19z m-253 -13 c3 -8 1 -15 -4 -15
-6 0 -10 7 -10 15 0 8 2 15 4 15 2 0 6 -7 10 -15z m146 5 c13 -8 13 -10 -2
-10 -9 0 -20 5 -23 10 -8 13 5 13 25 0z m-44 -27 c-7 -7 -26 7 -26 19 0 6 6 6
15 -2 9 -7 13 -15 11 -17z m194 23 c0 -3 -4 -8 -10 -11 -5 -3 -10 -1 -10 4 0
6 5 11 10 11 6 0 10 -2 10 -4z"/>
<path d="M583 1790 c-75 -45 -118 -149 -93 -224 13 -41 35 -56 80 -56 91 0
180 113 167 212 -9 64 -30 88 -80 88 -24 0 -56 -8 -74 -20z m81 -16 c42 -41 3
-192 -57 -224 -27 -14 -29 -14 -48 9 -37 45 -11 170 44 213 27 22 41 22 61 2z"/>
<path d="M814 1779 c-22 -17 -41 -32 -43 -34 -1 -2 0 -9 4 -15 5 -8 13 -6 26
6 11 9 22 15 24 12 5 -4 -40 -157 -62 -215 -4 -9 5 -13 24 -13 26 0 31 5 42
43 7 23 23 60 36 83 27 47 111 127 125 119 9 -6 -2 -49 -40 -159 -27 -80 -26
-96 5 -96 28 0 115 73 103 86 -5 4 -17 -1 -28 -11 -11 -10 -23 -16 -26 -12 -3
3 8 51 26 107 17 56 29 108 26 116 -15 39 -102 1 -160 -69 l-34 -41 18 54 c10
30 16 58 14 62 -10 16 -43 7 -80 -23z"/>
<path d="M1370 1792 c-78 -39 -126 -148 -100 -226 29 -89 141 -72 215 33 25
35 30 52 30 100 0 77 -22 111 -73 111 -20 0 -53 -8 -72 -18z m74 -18 c36 -35
12 -169 -37 -210 -35 -30 -51 -30 -71 -2 -33 46 -9 157 45 207 27 25 42 26 63
5z"/>
<path d="M2872 1608 c-38 -51 -93 -123 -122 -160 -28 -38 -63 -75 -78 -83 -26
-14 -24 -14 42 -15 62 0 68 2 51 14 -19 13 -18 15 8 55 26 39 30 41 78 41 43
0 50 -3 45 -16 -3 -9 -6 -27 -6 -40 0 -17 -8 -27 -24 -34 -44 -16 -35 -25 22
-22 32 1 68 4 82 5 l25 3 -29 12 c-28 12 -28 14 -23 70 4 31 9 100 13 152 3
52 8 98 11 103 2 4 -2 7 -10 7 -8 0 -46 -42 -85 -92z m34 -65 c-3 -31 -8 -58
-10 -60 -2 -3 -20 -3 -39 -1 l-36 3 42 57 c23 32 44 57 46 58 2 0 1 -26 -3
-57z"/>
<path d="M3284 1616 c-10 -25 -57 -50 -91 -48 -25 2 -37 -5 -63 -35 -28 -35
-30 -36 -20 -10 14 39 13 47 -7 47 -23 -1 -90 -56 -81 -66 4 -4 14 -1 23 6 27
22 26 5 -4 -79 l-29 -82 26 3 c19 2 28 12 38 40 20 59 72 128 95 128 12 0 23
8 26 18 3 13 11 18 27 15 l23 -5 -29 -90 c-31 -96 -28 -115 14 -104 30 7 85
52 76 61 -4 4 -19 0 -33 -9 -23 -15 -25 -15 -25 1 0 10 8 45 18 78 17 56 20
60 50 63 38 4 43 22 6 22 -23 0 -25 3 -19 30 7 31 -10 44 -21 16z"/>
<path d="M3393 1541 c-54 -39 -80 -103 -63 -155 10 -31 16 -36 43 -36 38 0 97
33 97 55 0 13 -6 12 -36 -4 -44 -24 -64 -18 -64 19 0 24 5 29 46 39 89 23 129
103 54 109 -27 2 -46 -5 -77 -27z m57 -35 c-14 -13 -35 -27 -48 -31 -21 -6
-22 -5 -10 20 14 31 58 58 73 44 6 -6 0 -18 -15 -33z"/>
</g>
</svg>
